<?xml version="1.0" standalone="no"?><!-- Generator: Gravit.io --><svg xmlns="http://www.w3.org/2000/svg" xmlns:xlink="http://www.w3.org/1999/xlink" style="isolation:isolate" viewBox="0 0 62 62" width="62" height="62"><defs><clipPath id="_clipPath_xEr4owBRgihVhjdLaEzDSVGVEWTewsyo"><rect width="62" height="62"/></clipPath></defs><g clip-path="url(#_clipPath_xEr4owBRgihVhjdLaEzDSVGVEWTewsyo)"><path d="M 2.8 1 L 59.2 1 C 60.193 1 61 1.807 61 2.8 L 61 59.2 C 61 60.193 60.193 61 59.2 61 L 2.8 61 C 1.807 61 1 60.193 1 59.2 L 1 2.8 C 1 1.807 1.807 1 2.8 1 Z" style="stroke:none;fill:#FFFFFF;stroke-miterlimit:10;"/><path d="M 2.8 1 L 59.2 1 C 60.193 1 61 1.807 61 2.8 L 61 59.2 C 61 60.193 60.193 61 59.2 61 L 2.8 61 C 1.807 61 1 60.193 1 59.2 L 1 2.8 C 1 1.807 1.807 1 2.8 1 Z" style="fill:none;stroke:#464646;stroke-width:2;stroke-linecap:square;stroke-miterlimit:3;"/><path d="M 18.167 8 L 26.166 8 C 26.718 8 27.167 8.448 27.167 9.001 L 27.167 26.999 C 27.167 27.552 26.718 28 26.166 28 L 18.167 28 C 17.615 28 17.167 27.552 17.167 26.999 L 17.167 9.001 C 17.167 8.448 17.615 8 18.167 8 Z" style="stroke:none;fill:#464646;stroke-linecap:square;stroke-miterlimit:3;"/><path d="M 36.001 32 L 43.999 32 C 44.552 32 45 32.448 45 33.001 L 45 50.999 C 45 51.552 44.552 52 43.999 52 L 36.001 52 C 35.448 52 35 51.552 35 50.999 L 35 33.001 C 35 32.448 35.448 32 36.001 32 Z" style="stroke:none;fill:#464646;stroke-linecap:square;stroke-miterlimit:3;"/><path d="M 18.167 32 L 26.166 32 C 26.718 32 27.167 32.448 27.167 33.001 L 27.167 50.999 C 27.167 51.552 26.718 52 26.166 52 L 18.167 52 C 17.615 52 17.167 51.552 17.167 50.999 L 17.167 33.001 C 17.167 32.448 17.615 32 18.167 32 Z" style="stroke:none;fill:#464646;stroke-linecap:square;stroke-miterlimit:3;"/><g id="Group"><path d="M 35.667 8 L 43.666 8 C 44.218 8 44.667 8.448 44.667 9.001 L 44.667 26.999 C 44.667 27.552 44.218 28 43.666 28 L 35.667 28 C 35.115 28 34.667 27.552 34.667 26.999 L 34.667 9.001 C 34.667 8.448 35.115 8 35.667 8 Z" style="stroke:none;fill:#464646;stroke-linecap:square;stroke-miterlimit:3;"/><path d="M 32.767 16 L 46.567 16 C 46.898 16 47.167 16.269 47.167 16.6 L 47.167 17.4 C 47.167 17.731 46.898 18 46.567 18 L 32.767 18 C 32.436 18 32.167 17.731 32.167 17.4 L 32.167 16.6 C 32.167 16.269 32.436 16 32.767 16 Z" style="stroke:none;fill:#464646;stroke-linecap:square;stroke-miterlimit:3;"/></g><path d="M 16.287 46 L 18.047 46 C 18.665 46 19.167 46.502 19.167 47.12 L 19.167 50.88 C 19.167 51.498 18.665 52 18.047 52 L 16.287 52 C 15.669 52 15.167 51.498 15.167 50.88 L 15.167 47.12 C 15.167 46.502 15.669 46 16.287 46 Z" style="stroke:none;fill:#464646;stroke-linecap:square;stroke-miterlimit:3;"/><rect x="32.167" y="38" width="6.833" height="1" transform="matrix(1,0,0,1,0,0)" fill="rgb(255,255,255)"/><rect x="32.167" y="44.5" width="6.833" height="1" transform="matrix(1,0,0,1,0,0)" fill="rgb(255,255,255)"/></g></svg>